<mxfile host="app.diagrams.net" agent="Mozilla/5.0 (Windows NT 10.0; Win64; x64) AppleWebKit/537.36 (KHTML, like Gecko) Chrome/130.0.0.0 Safari/537.36 Edg/130.0.0.0" version="24.8.3">
  <diagram name="Page-1" id="esm6e7eR_EaCIN7WzT4S">
    <mxGraphModel dx="1426" dy="749" grid="1" gridSize="10" guides="1" tooltips="1" connect="1" arrows="1" fold="1" page="1" pageScale="1" pageWidth="1169" pageHeight="827" math="0" shadow="0">
      <root>
        <mxCell id="0" />
        <mxCell id="1" parent="0" />
        <mxCell id="ImhVhVMgm0nCk-Ohi60l-10" value="" style="rounded=0;whiteSpace=wrap;html=1;" vertex="1" parent="1">
          <mxGeometry x="20" y="80" width="970" height="650" as="geometry" />
        </mxCell>
        <mxCell id="ImhVhVMgm0nCk-Ohi60l-12" value="Angers VLAN 598" style="rounded=0;whiteSpace=wrap;html=1;fillColor=#d5e8d4;strokeColor=#82b366;" vertex="1" parent="1">
          <mxGeometry x="20" y="80" width="970" height="30" as="geometry" />
        </mxCell>
        <UserObject label="Worker #1&#xa;ESX: 10&#xa;172.22.238.xxx&#xa;SVK8SWRKRE01C" link="Worker #1&#xa;ESX: 10&#xa;172.22.238.xxx&#xa;SVK8SWRKRE01C" id="ImhVhVMgm0nCk-Ohi60l-13">
          <mxCell style="aspect=fixed;sketch=0;html=1;dashed=0;whitespace=wrap;verticalLabelPosition=bottom;verticalAlign=top;fillColor=#2875E2;strokeColor=#ffffff;points=[[0.005,0.63,0],[0.1,0.2,0],[0.9,0.2,0],[0.5,0,0],[0.995,0.63,0],[0.72,0.99,0],[0.5,1,0],[0.28,0.99,0]];shape=mxgraph.kubernetes.icon2;kubernetesLabel=1;prIcon=node" vertex="1" parent="1">
            <mxGeometry x="780" y="110.00000000000001" width="70.83" height="68" as="geometry" />
          </mxCell>
        </UserObject>
        <UserObject label="Controleur #1&amp;nbsp;&lt;div&gt;ESX: 10&lt;br&gt;172.22.238.xxx&lt;br&gt;SVK8SCTRRE01C&lt;/div&gt;" link="Controleur #1Â &#xa;VLAN 598&#xa;ESX: 10&#xa;172.22.238.xxx&#xa;SVK8SCTRRE01C" id="ImhVhVMgm0nCk-Ohi60l-14">
          <mxCell style="aspect=fixed;sketch=0;html=1;dashed=0;whitespace=wrap;verticalLabelPosition=bottom;verticalAlign=top;fillColor=#2875E2;strokeColor=#ffffff;points=[[0.005,0.63,0],[0.1,0.2,0],[0.9,0.2,0],[0.5,0,0],[0.995,0.63,0],[0.72,0.99,0],[0.5,1,0],[0.28,0.99,0]];shape=mxgraph.kubernetes.icon2;kubernetesLabel=1;prIcon=control_plane" vertex="1" parent="1">
            <mxGeometry x="90" y="347.4" width="120" height="115.2" as="geometry" />
          </mxCell>
        </UserObject>
        <UserObject label="Controleur #2&#xa;ESX : 11&#xa;172.22.238.xxx&#xa;SVK8SCTRRE02C" link="Controleur #2&#xa;ESX : 11&#xa;172.22.238.xxx&#xa;SVK8SCTRRE02C" id="ImhVhVMgm0nCk-Ohi60l-15">
          <mxCell style="aspect=fixed;sketch=0;html=1;dashed=0;whitespace=wrap;verticalLabelPosition=bottom;verticalAlign=top;fillColor=#2875E2;strokeColor=#ffffff;points=[[0.005,0.63,0],[0.1,0.2,0],[0.9,0.2,0],[0.5,0,0],[0.995,0.63,0],[0.72,0.99,0],[0.5,1,0],[0.28,0.99,0]];shape=mxgraph.kubernetes.icon2;kubernetesLabel=1;prIcon=control_plane" vertex="1" parent="1">
            <mxGeometry x="390" y="347.4" width="120" height="115.2" as="geometry" />
          </mxCell>
        </UserObject>
        <mxCell id="ImhVhVMgm0nCk-Ohi60l-16" value="&lt;div&gt;Worker #3&lt;/div&gt;&lt;div&gt;ESX: 12&lt;/div&gt;&lt;div&gt;172.22.238.xxx&lt;/div&gt;&lt;div&gt;SVK8SWRKRE03C&lt;/div&gt;" style="aspect=fixed;sketch=0;html=1;dashed=0;whitespace=wrap;verticalLabelPosition=bottom;verticalAlign=top;fillColor=#2875E2;strokeColor=#ffffff;points=[[0.005,0.63,0],[0.1,0.2,0],[0.9,0.2,0],[0.5,0,0],[0.995,0.63,0],[0.72,0.99,0],[0.5,1,0],[0.28,0.99,0]];shape=mxgraph.kubernetes.icon2;kubernetesLabel=1;prIcon=node" vertex="1" parent="1">
          <mxGeometry x="780" y="430" width="70.83" height="68" as="geometry" />
        </mxCell>
        <UserObject label="Worker #2&#xa;ESX: 11&#xa;172.22.238.xxx&#xa;SVK8SWRKRE02C" link="Worker #2&#xa;ESX: 11&#xa;172.22.238.xxx&#xa;SVK8SWRKRE02C" id="ImhVhVMgm0nCk-Ohi60l-17">
          <mxCell style="aspect=fixed;sketch=0;html=1;dashed=0;whitespace=wrap;verticalLabelPosition=bottom;verticalAlign=top;fillColor=#2875E2;strokeColor=#ffffff;points=[[0.005,0.63,0],[0.1,0.2,0],[0.9,0.2,0],[0.5,0,0],[0.995,0.63,0],[0.72,0.99,0],[0.5,1,0],[0.28,0.99,0]];shape=mxgraph.kubernetes.icon2;kubernetesLabel=1;prIcon=node" vertex="1" parent="1">
            <mxGeometry x="780" y="270" width="70.83" height="68" as="geometry" />
          </mxCell>
        </UserObject>
        <UserObject label="Worker #4&#xa;ESX: 13&#xa;172.22.238.xxx&#xa;SVK8SWRKRE04C" link="Worker #4&#xa;ESX: 13&#xa;172.22.238.xxx&#xa;SVK8SWRKRE04C" id="ImhVhVMgm0nCk-Ohi60l-18">
          <mxCell style="aspect=fixed;sketch=0;html=1;dashed=0;whitespace=wrap;verticalLabelPosition=bottom;verticalAlign=top;fillColor=#2875E2;strokeColor=#ffffff;points=[[0.005,0.63,0],[0.1,0.2,0],[0.9,0.2,0],[0.5,0,0],[0.995,0.63,0],[0.72,0.99,0],[0.5,1,0],[0.28,0.99,0]];shape=mxgraph.kubernetes.icon2;kubernetesLabel=1;prIcon=node" vertex="1" parent="1">
            <mxGeometry x="780" y="590" width="70.83" height="68" as="geometry" />
          </mxCell>
        </UserObject>
        <mxCell id="ImhVhVMgm0nCk-Ohi60l-23" value="" style="rounded=0;whiteSpace=wrap;html=1;" vertex="1" parent="1">
          <mxGeometry x="20" y="810" width="970" height="400" as="geometry" />
        </mxCell>
        <mxCell id="ImhVhVMgm0nCk-Ohi60l-24" value="Nantes VLAN 510" style="rounded=0;whiteSpace=wrap;html=1;fillColor=#ffe6cc;strokeColor=#d79b00;" vertex="1" parent="1">
          <mxGeometry x="20" y="810" width="970" height="30" as="geometry" />
        </mxCell>
        <UserObject label="&lt;div&gt;Controleur #3&lt;/div&gt;&lt;div&gt;POD Y / Z&lt;/div&gt;&lt;div&gt;172.22.250.xxx&lt;/div&gt;&lt;div&gt;SVK8SCTRRE03C&lt;/div&gt;" id="ImhVhVMgm0nCk-Ohi60l-26">
          <mxCell style="aspect=fixed;sketch=0;html=1;dashed=0;whitespace=wrap;verticalLabelPosition=bottom;verticalAlign=top;fillColor=#2875E2;strokeColor=#ffffff;points=[[0.005,0.63,0],[0.1,0.2,0],[0.9,0.2,0],[0.5,0,0],[0.995,0.63,0],[0.72,0.99,0],[0.5,1,0],[0.28,0.99,0]];shape=mxgraph.kubernetes.icon2;kubernetesLabel=1;prIcon=control_plane" vertex="1" parent="1">
            <mxGeometry x="80" y="930" width="120" height="115.2" as="geometry" />
          </mxCell>
        </UserObject>
        <UserObject label="&lt;div&gt;Worker #5&lt;/div&gt;&lt;div&gt;POD Y&lt;/div&gt;&lt;div&gt;172.22.250.xxx&lt;/div&gt;&lt;div&gt;SVK8SWRKRE05C&lt;/div&gt;" link="Worker #2&#xa;ESX: 11&#xa;172.22.238.xxx&#xa;SVK8SWRKRE02C" id="ImhVhVMgm0nCk-Ohi60l-31">
          <mxCell style="aspect=fixed;sketch=0;html=1;dashed=0;whitespace=wrap;verticalLabelPosition=bottom;verticalAlign=top;fillColor=#2875E2;strokeColor=#ffffff;points=[[0.005,0.63,0],[0.1,0.2,0],[0.9,0.2,0],[0.5,0,0],[0.995,0.63,0],[0.72,0.99,0],[0.5,1,0],[0.28,0.99,0]];shape=mxgraph.kubernetes.icon2;kubernetesLabel=1;prIcon=node" vertex="1" parent="1">
            <mxGeometry x="780" y="880" width="70.83" height="68" as="geometry" />
          </mxCell>
        </UserObject>
        <UserObject label="Worker #6&lt;br&gt;VLAN 510&lt;br&gt;POD Z&lt;div&gt;&lt;div&gt;172.22.250.xxx&lt;/div&gt;SVK8SWRKRE06C&lt;/div&gt;" link="Worker #2&#xa;ESX: 11&#xa;172.22.238.xxx&#xa;SVK8SWRKRE02C" id="ImhVhVMgm0nCk-Ohi60l-32">
          <mxCell style="aspect=fixed;sketch=0;html=1;dashed=0;whitespace=wrap;verticalLabelPosition=bottom;verticalAlign=top;fillColor=#2875E2;strokeColor=#ffffff;points=[[0.005,0.63,0],[0.1,0.2,0],[0.9,0.2,0],[0.5,0,0],[0.995,0.63,0],[0.72,0.99,0],[0.5,1,0],[0.28,0.99,0]];shape=mxgraph.kubernetes.icon2;kubernetesLabel=1;prIcon=node" vertex="1" parent="1">
            <mxGeometry x="780" y="1045.2" width="70.83" height="68" as="geometry" />
          </mxCell>
        </UserObject>
      </root>
    </mxGraphModel>
  </diagram>
</mxfile>
